<?xml version="1.0" encoding="UTF-8" standalone="no"?>
<!-- Created with Inkscape (http://www.inkscape.org/) -->

<svg
   width="171.0452mm"
   height="91.670151mm"
   viewBox="0 0 171.0452 91.670151"
   version="1.1"
   id="svg1"
   xml:space="preserve"
   xmlns="http://www.w3.org/2000/svg"
   xmlns:svg="http://www.w3.org/2000/svg"><defs
     id="defs1" /><g
     id="layer1"
     transform="translate(-81.22725,-102.10959)"><g
       id="g1"
       transform="matrix(3.4690607,0,0.08452855,3.3378399,116.80027,77.642338)"
       style="fill:#000000;fill-opacity:1"><g
         id="g6"
         transform="matrix(1.5320204,0,-0.44460356,1.5257729,9.7355353,2.7529481)"
         style="fill:#000000;fill-opacity:1"><path
           d="M 18.5,5 H 17 V 3.5 a 0.5,0.5 0 0 0 -1,0 V 5 H 8 V 3.5 a 0.5,0.5 0 0 0 -1,0 V 5 H 5.5 A 2.50263,2.50263 0 0 0 3,7.5 v 11 A 2.50263,2.50263 0 0 0 5.5,21 h 13 A 2.50263,2.50263 0 0 0 21,18.5 V 7.5 A 2.50263,2.50263 0 0 0 18.5,5 Z M 5.5,6 H 7 v 1.5 a 0.5,0.5 0 0 0 1,0 V 6 h 8 v 1.5 a 0.5,0.5 0 0 0 1,0 V 6 h 1.5 A 1.50164,1.50164 0 0 1 20,7.5 V 10 H 4 V 7.5 A 1.50164,1.50164 0 0 1 5.5,6 Z m 13,14 H 5.5 A 1.50164,1.50164 0 0 1 4,18.5 V 11 h 16 v 7.5 A 1.50164,1.50164 0 0 1 18.5,20 Z"
           id="path1"
           style="fill:#000000;fill-opacity:1" /><path
           d="M 13,14.5 A 0.49971,0.49971 0 0 1 12.5,15 h -1 a 0.5,0.5 0 0 1 0,-1 h 1 a 0.49971,0.49971 0 0 1 0.5,0.5 z"
           id="path2"
           style="fill:#000000;fill-opacity:1" /><path
           d="M 8,14.5 A 0.49971,0.49971 0 0 1 7.5,15 h -1 a 0.5,0.5 0 0 1 0,-1 h 1 A 0.49971,0.49971 0 0 1 8,14.5 Z"
           id="path3"
           style="fill:#000000;fill-opacity:1" /><path
           d="M 8,17.5 A 0.49971,0.49971 0 0 1 7.5,18 h -1 a 0.5,0.5 0 0 1 0,-1 h 1 A 0.49971,0.49971 0 0 1 8,17.5 Z"
           id="path4"
           style="fill:#000000;fill-opacity:1" /><path
           d="M 13,17.5 A 0.49971,0.49971 0 0 1 12.5,18 h -1 a 0.5,0.5 0 0 1 0,-1 h 1 a 0.49971,0.49971 0 0 1 0.5,0.5 z"
           id="path5"
           style="fill:#000000;fill-opacity:1" /><path
           d="M 18,14.5 A 0.49971,0.49971 0 0 1 17.5,15 h -1 a 0.5,0.5 0 0 1 0,-1 h 1 a 0.49971,0.49971 0 0 1 0.5,0.5 z"
           id="path6"
           style="fill:#000000;fill-opacity:1" /></g></g><rect
       style="fill:#000000;fill-opacity:1;stroke-width:0.279286"
       id="rect8"
       width="48.620167"
       height="4.966332"
       x="98.48925"
       y="125.86916"
       ry="2.483166" /><rect
       style="fill:#000000;fill-opacity:1;stroke-width:0.2826"
       id="rect8-1"
       width="49.780914"
       height="4.966332"
       x="90.513184"
       y="148.00433"
       ry="2.483166" /><rect
       style="fill:#000000;fill-opacity:1;stroke-width:0.2875"
       id="rect8-5"
       width="51.522026"
       height="4.966332"
       x="81.227249"
       y="170.05843"
       ry="2.483166" /></g></svg>
